<svg height="512pt"
viewBox="0 0 256 256"
width="512pt"
xmlns="http://www.w3.org/2000/svg">
<path d="m117.460938 234.917969c-64.769532 0-117.460938-52.691407-117.460938-117.457031 0-64.769532 52.691406-117.460938 117.460938-117.460938 64.765624 0 117.457031 52.691406 117.457031 117.460938 0 64.765624-52.691407 117.457031-117.457031 117.457031zm0 0" fill="#e4eaf8"/>
<path d="m30.90625 117.460938c0-59.53125 44.515625-108.855469 102.007812-116.441407-5.058593-.667969-10.21875-1.019531-15.453124-1.019531-64.769532 0-117.460938 52.691406-117.460938 117.460938 0 64.765624 52.691406 117.457031 117.460938 117.457031 5.234374 0 10.394531-.351563 15.453124-1.019531-57.492187-7.585938-102.007812-56.910157-102.007812-116.4375zm0 0" fill="#c7d2e5"/>
<path d="m117.460938 36.140625c-44.839844 0-81.320313 36.480469-81.320313 81.320313 0 44.835937 36.480469 81.316406 81.320313 81.316406 44.835937 0 81.316406-36.480469 81.316406-81.316406 0-44.839844-36.480469-81.320313-81.316406-81.320313zm0 0" fill="#c7d2e5"/>
<path d="m67.050781 117.460938c0-39.554688 28.390625-72.589844 65.863281-79.828126-5.007812-.96875-10.171874-1.492187-15.453124-1.492187-44.839844 0-81.320313 36.480469-81.320313 81.320313 0 44.839843 36.480469 81.316406 81.320313 81.316406 5.28125 0 10.445312-.523438 15.453124-1.492188-37.472656-7.242187-65.863281-40.273437-65.863281-79.824218zm0 0" fill="#bac7db"/><path d="m117.460938 511.398438c-64.769532 0-117.460938-52.691407-117.460938-117.460938 0-64.765625 52.691406-117.457031 117.460938-117.457031 64.765624 0 117.457031 52.691406 117.457031 117.457031 0 64.769531-52.691407 117.460938-117.457031 117.460938zm0 0" fill="#e4eaf8"/>
<path d="m30.90625 393.9375c0-59.527344 44.515625-108.851562 102.007812-116.441406-5.058593-.667969-10.21875-1.015625-15.453124-1.015625-64.769532 0-117.460938 52.691406-117.460938 117.457031 0 64.769531 52.691406 117.460938 117.460938 117.460938 5.234374 0 10.394531-.351563 15.453124-1.019532-57.492187-7.589844-102.007812-56.910156-102.007812-116.441406zm0 0" fill="#c7d2e5"/>
<path d="m117.460938 312.621094c-44.839844 0-81.320313 36.480468-81.320313 81.316406 0 44.839844 36.480469 81.320312 81.320313 81.320312 44.835937 0 81.316406-36.480468 81.316406-81.320312 0-44.835938-36.480469-81.316406-81.316406-81.316406zm0 0" fill="#c7d2e5"/>
</svg>